#N canvas 36 113 916 494 10;
#X obj 99 196 osc~ 200;
#X obj 520 399 dac~;
#X obj 98 60 tgl 15 0 empty empty empty 17 7 0 10 -262144 -1 -1 1 1
;
#X obj 100 288 osc~ 200;
#X obj 541 201 vsl 15 128 0 127 0 0 empty empty empty 0 -9 0 10 -262144
-1 -1 9500 1;
#X obj 149 57 + 20;
#X obj 330 40 bng 15 250 50 0 empty empty empty 17 7 0 10 -262144 -1
-1;
#X obj 520 365 *~ 1;
#X obj 100 230 *~ 50;
#X obj 589 367 *~ 1;
#X obj 541 339 / 128;
#X obj 609 203 vsl 15 128 0 127 0 0 empty empty empty 0 -9 0 10 -262144
-1 -1 9600 1;
#X obj 609 341 / 128;
#X floatatom 303 138 5 0 0 0 - - -;
#X text 539 43 demo fm patch interface! read more at github.com/taylorbf/pdgui
;
#X obj 99 147 int;
#X obj 99 170 * 50;
#X floatatom 137 147 5 0 0 0 - - -;
#X obj 98 121 random 10;
#X floatatom 149 30 5 0 0 0 - - -;
#X obj 233 233 hsl 128 15 0 127 0 0 empty empty empty -2 -8 0 10 -262144
-1 -1 2600 1;
#X obj 231 255 * 40;
#X obj 100 261 +~ 200;
#X obj 98 90 metro 100;
#X obj 428 21 vsl 15 128 0 127 0 0 empty empty empty 0 -9 0 10 -262144
-1 -1 11400 1;
#X obj 386 165 *~ 0;
#X obj 427 165 / 128;
#X obj 305 166 osc~;
#X msg 329 68 200;
#X obj 367 40 bng 15 250 50 0 empty empty empty 17 7 0 10 -262144 -1
-1;
#X msg 366 68 300;
#X obj 294 37 bng 15 250 50 0 empty empty empty 17 7 0 10 -262144 -1
-1;
#X msg 293 65 100;
#X connect 0 0 8 0;
#X connect 2 0 23 0;
#X connect 3 0 7 0;
#X connect 3 0 9 0;
#X connect 4 0 10 0;
#X connect 5 0 23 1;
#X connect 6 0 28 0;
#X connect 7 0 1 0;
#X connect 8 0 22 0;
#X connect 9 0 1 1;
#X connect 10 0 7 1;
#X connect 11 0 12 0;
#X connect 12 0 9 1;
#X connect 13 0 27 0;
#X connect 15 0 16 0;
#X connect 16 0 0 0;
#X connect 18 0 17 0;
#X connect 18 0 15 0;
#X connect 19 0 5 0;
#X connect 20 0 21 0;
#X connect 21 0 8 1;
#X connect 22 0 3 0;
#X connect 23 0 18 0;
#X connect 24 0 26 0;
#X connect 25 0 7 0;
#X connect 25 0 9 0;
#X connect 26 0 25 1;
#X connect 27 0 25 0;
#X connect 28 0 13 0;
#X connect 29 0 30 0;
#X connect 30 0 13 0;
#X connect 31 0 32 0;
#X connect 32 0 13 0;
