#N canvas 214 98 450 300 10;
#X obj 102 55 osc~ 200;
#X obj 96 130 dac~;
#X obj 48 96 tgl 15 0 empty empty empty 17 7 0 10 -262144 -1 -1 0 1
;
#X obj 102 13 nbx 5 14 -1e+37 1e+37 0 0 empty empty empty 0 -8 0 10
-262144 -1 -1 24 256;
#X obj 21 36 loadbang;
#X obj 214 22 tgl 15 0 empty empty empty 17 7 0 10 -262144 -1 -1 0
1;
#X obj 195 126 * 300;
#X obj 178 187 osc~ 200;
#X obj 195 159 + 100;
#X obj 193 92 tgl 15 0 empty empty empty 17 7 0 10 -262144 -1 -1 1
1;
#X obj 209 59 metro 300;
#X obj 260 20 nbx 10 24 -1e+37 1e+37 0 0 empty empty empty 0 -8 0 10
-262144 -1 -1 8 256;
#X connect 0 0 1 0;
#X connect 0 0 1 1;
#X connect 2 0 1 0;
#X connect 3 0 0 0;
#X connect 4 0 2 0;
#X connect 5 0 10 0;
#X connect 6 0 8 0;
#X connect 7 0 1 0;
#X connect 7 0 1 1;
#X connect 8 0 7 0;
#X connect 9 0 6 0;
#X connect 10 0 9 0;
#X connect 11 0 10 1;
